<svg width="69" height="41" viewBox="0 0 69 41" fill="none" xmlns="http://www.w3.org/2000/svg">
<path d="M13 5.2V15.3333L47 26V4.66667L44.5362 2H13.9855L13 5.2Z" fill="#FFCB75"/>
<path d="M13 4.13333V10.8889L47 18V3.77778L44.5362 2H13.9855L13 4.13333Z" fill="#FFAD27"/>
<path d="M35.604 13.6C35.305 13.6091 35.0175 13.7315 34.8059 13.9445L28.7385 19.9059L25.001 16.2339C23.9545 15.1595 22.264 16.8187 23.3565 17.8477L27.9174 22.3312C28.3705 22.7777 29.1065 22.7777 29.5619 22.3312L36.4504 15.5607C37.2094 14.8353 36.6505 13.6 35.6063 13.6H35.604ZM1.15 22.6667H8.05C8.6871 22.6667 9.2 23.1721 9.2 23.8C9.2 24.4279 8.6871 24.9333 8.05 24.9333H1.15C0.5129 24.9333 0 24.4279 0 23.8C0 23.1721 0.5129 22.6667 1.15 22.6667ZM1.15 13.6H8.05C8.6871 13.6 9.2 14.1055 9.2 14.7333C9.2 15.3612 8.6871 15.8667 8.05 15.8667H1.15C0.5129 15.8667 0 15.3612 0 14.7333C0 14.1055 0.5129 13.6 1.15 13.6ZM1.15 4.53333H8.05C8.6871 4.53333 9.2 5.0388 9.2 5.66667C9.2 6.29453 8.6871 6.8 8.05 6.8H1.15C0.5129 6.8 0 6.29453 0 5.66667C0 5.0388 0.5129 4.53333 1.15 4.53333ZM56.35 29.4667C53.1875 29.4667 50.6 32.0167 50.6 35.1333C50.6 38.25 53.1875 40.8 56.35 40.8C59.5125 40.8 62.1 38.25 62.1 35.1333C62.1 32.0167 59.5125 29.4667 56.35 29.4667ZM56.35 31.7333C58.2682 31.7333 59.8 33.2429 59.8 35.1333C59.8 37.0237 58.2682 38.5333 56.35 38.5333C54.4318 38.5333 52.9 37.0237 52.9 35.1333C52.9 33.2429 54.4318 31.7333 56.35 31.7333ZM26.45 29.4667C23.2875 29.4667 20.7 32.0167 20.7 35.1333C20.7 38.25 23.2875 40.8 26.45 40.8C29.6125 40.8 32.2 38.25 32.2 35.1333C32.2 32.0167 29.6125 29.4667 26.45 29.4667ZM26.45 31.7333C28.3682 31.7333 29.9 33.2429 29.9 35.1333C29.9 37.0237 28.3682 38.5333 26.45 38.5333C24.5318 38.5333 23 37.0237 23 35.1333C23 33.2429 24.5318 31.7333 26.45 31.7333ZM14.95 0C13.0594 0 11.5 1.5368 11.5 3.4V28.3333C11.5 30.1965 13.0594 31.7333 14.95 31.7333H19.55C21.1048 31.756 21.1048 29.444 19.55 29.4667H14.95C14.2922 29.4667 13.8 28.9816 13.8 28.3333V3.4C13.8 2.75173 14.2922 2.26667 14.95 2.26667H44.85C45.5078 2.26667 46 2.75173 46 3.4V29.4667H33.35C31.832 29.4667 31.8596 31.756 33.35 31.7333H49.45C50.968 31.7333 50.9542 29.4667 49.45 29.4667H48.3V9.06667H58.0221L66.7 22.4309V28.3333C66.7 28.9816 66.2078 29.4667 65.55 29.4667H63.25C61.7458 29.4667 61.7458 31.7333 63.25 31.7333H65.55C67.4406 31.7333 69 30.1965 69 28.3333V22.1C69 21.8847 68.9379 21.6693 68.8206 21.488L59.6206 7.32133C59.409 6.9972 59.0456 6.8 58.65 6.8H48.3V3.4C48.3 1.5368 46.7406 0 44.85 0H14.95Z" fill="#222222"/>
</svg>
