<svg width="49" height="50" viewBox="0 0 49 50" fill="none" xmlns="http://www.w3.org/2000/svg">
<path d="M18.5 12.4941L1 29.9941V33.4941L18.5 47.9941L27.5 38.9941L18.5 12.4941Z" fill="#FFCB75"/>
<path d="M13.5 16.9941L1.5 29.9941V33.4941L16.5 47.9941H19L25.5 41.9941L13.5 16.9941Z" fill="#FFAD27"/>
<path d="M49 6.78073C49 3.04182 45.9583 0 42.2194 0C38.9712 0 36.2504 2.2963 35.5919 5.35057H26.1868C24.9086 5.35057 23.7068 5.84825 22.8027 6.75211L1.40221 28.1475C0.498068 29.0514 1.38016e-08 30.2535 1.38016e-08 31.532C-9.57133e-05 32.8106 0.497781 34.0127 1.40192 34.9168L14.0971 47.612C15.0011 48.5159 16.203 49.0139 17.4815 49.0139C18.7599 49.0139 19.9619 48.516 20.8659 47.612L28.2698 40.208C28.6436 39.8342 28.6436 39.2281 28.2698 38.8542C27.8959 38.4805 27.29 38.4805 26.916 38.8542L19.512 46.2581C18.3923 47.3778 16.5704 47.3778 15.4507 46.2581L2.7556 33.5631C2.21311 33.0206 1.91435 32.2994 1.91445 31.5321C1.91445 30.765 2.21321 30.0438 2.75579 29.5015L24.1563 8.10607C24.6987 7.56378 25.4198 7.26511 26.1868 7.26511H35.4577C35.572 8.89362 36.2589 10.4096 37.4246 11.5752C37.7985 11.9491 38.4045 11.9491 38.7784 11.5753C39.1523 11.2015 39.1523 10.5955 38.7785 10.2215C37.9745 9.41753 37.4866 8.38177 37.377 7.26501H38.8826C40.4661 7.26501 41.7544 8.55331 41.7544 10.1368V22.8264C41.7544 23.5935 41.4557 24.3147 40.9133 24.8571L33.008 32.7623C32.6342 33.1361 32.6342 33.7423 33.008 34.1162C33.3819 34.4899 33.9879 34.4899 34.3619 34.1162L42.2671 26.2109C43.1711 25.3069 43.6691 24.1049 43.6691 22.8265V13.405C46.756 12.7385 49 10.0146 49 6.78073ZM43.669 11.4282V10.1368C43.669 7.49763 41.5218 5.35047 38.8826 5.35047H37.5681C38.1805 3.36308 40.0338 1.91454 42.2194 1.91454C44.9025 1.91454 47.0855 4.0975 47.0855 6.78073C47.0855 8.9567 45.6706 10.8109 43.669 11.4282Z" fill="#222222"/>
<path d="M13.2014 31.4803C13.5752 31.1065 13.5752 30.5004 13.2014 30.1265C12.8275 29.7528 12.2215 29.7528 11.8475 30.1265L9.54306 32.4309C9.16924 32.8047 9.16924 33.4109 9.54306 33.7848L15.2289 39.4707C15.4158 39.6575 15.6608 39.7511 15.9057 39.7511C16.1507 39.7511 16.3957 39.6575 16.5826 39.4707C16.9564 39.0969 16.9564 38.4907 16.5826 38.1168L14.3627 35.8969L15.8072 34.4524C16.1811 34.0786 16.1811 33.4724 15.8072 33.0985C15.4333 32.7248 14.8274 32.7248 14.4534 33.0985L13.0089 34.543L11.5735 33.1077L13.2014 31.4803Z" fill="#222222"/>
<path d="M24.5012 31.1567C25.0021 31.1567 25.4234 30.7673 25.4556 30.2604C25.4893 29.7327 25.0889 29.2778 24.5613 29.2442L21.3966 29.0424C21.6626 28.5851 21.8135 28.0677 21.8303 27.5296C21.8566 26.6829 21.5507 25.8962 20.969 25.3144C19.781 24.1264 17.8105 24.1637 16.5761 25.3979L15.0651 26.9089C15.0649 26.9092 15.0646 26.9096 15.0643 26.9098C15.064 26.9101 15.0636 26.9104 15.0633 26.9107C14.6895 27.2845 14.6895 27.8907 15.0633 28.2646L20.7492 33.9504C20.9362 34.1372 21.1811 34.2308 21.4261 34.2308C21.6711 34.2308 21.916 34.1372 22.103 33.9504C22.4768 33.5766 22.4768 32.9704 22.103 32.5965L20.4037 30.8974L24.4392 31.1547C24.4602 31.156 24.4809 31.1567 24.5012 31.1567ZM17.9301 26.7517C18.4095 26.2723 19.1811 26.234 19.6152 26.6681C19.8194 26.8723 19.9264 27.1569 19.9167 27.4698C19.9065 27.7968 19.7661 28.1187 19.5316 28.3532C19.3396 28.5452 19.009 28.8786 18.7071 29.1835C18.4089 28.8883 18.0852 28.5674 17.9006 28.3828C17.7426 28.2249 17.4089 27.893 17.098 27.5837L17.9301 26.7517Z" fill="#222222"/>
<path d="M33.8241 22.2292L36.2199 19.8334C36.5937 19.4596 36.5937 18.8535 36.2199 18.4796C35.846 18.1058 35.24 18.1058 34.866 18.4796L33.1471 20.1984L31.658 18.7093L33.2002 17.1671C33.574 16.7932 33.574 16.1871 33.2002 15.8132C32.8263 15.4395 32.2203 15.4395 31.8463 15.8132L30.3041 17.3554L28.8149 15.8662L30.5339 14.1473C30.9077 13.7735 30.9077 13.1674 30.5339 12.7935C30.16 12.4198 29.554 12.4198 29.18 12.7935L26.7843 15.1892C26.4105 15.563 26.4105 16.1692 26.7843 16.5431L29.6268 19.3856L29.6273 19.3861C29.6273 19.3861 29.6275 19.3864 29.6277 19.3866L32.4702 22.2291C32.6498 22.4086 32.8932 22.5095 33.1471 22.5095C33.4009 22.5095 33.6445 22.4087 33.8241 22.2292Z" fill="#222222"/>
<path d="M27.5955 28.0617C27.8494 28.0617 28.0928 27.9608 28.2724 27.7813L30.6682 25.3856C31.042 25.0118 31.042 24.4056 30.6682 24.0317C30.2943 23.658 29.6883 23.658 29.3143 24.0317L27.5954 25.7506L26.1063 24.2615L27.6487 22.7192C28.0225 22.3454 28.0225 21.7392 27.6487 21.3653C27.2749 20.9918 26.6689 20.9916 26.2948 21.3653L24.7525 22.9076L23.2634 21.4185L24.9824 19.6996C25.3562 19.3258 25.3562 18.7196 24.9824 18.3457C24.6085 17.972 24.0025 17.972 23.6285 18.3457L21.2328 20.7415C20.8589 21.1153 20.8589 21.7214 21.2328 22.0953L26.9186 27.7812C27.0981 27.9608 27.3416 28.0617 27.5955 28.0617Z" fill="#222222"/>
<path d="M30.6389 35.5278C30.3872 35.5278 30.1402 35.6303 29.9621 35.8083C29.7842 35.9864 29.6816 36.2334 29.6816 36.4851C29.6816 36.7369 29.7841 36.9839 29.9621 37.162C30.1402 37.3399 30.3872 37.4424 30.6389 37.4424C30.8907 37.4424 31.1377 37.34 31.3158 37.162C31.4937 36.9839 31.5962 36.7369 31.5962 36.4851C31.5962 36.2334 31.4938 35.9864 31.3158 35.8083C31.1377 35.6303 30.8907 35.5278 30.6389 35.5278Z" fill="#222222"/>
</svg>
