<svg width="49" height="49" viewBox="0 0 49 49" fill="none" xmlns="http://www.w3.org/2000/svg">
<rect x="19" y="1" width="19" height="19" rx="9.5" fill="#FFAD27"/>
<rect x="21" y="5.33301" width="6" height="17.9778" transform="rotate(-33.7485 21 5.33301)" fill="#FFCB75"/>
<path d="M22.5183 33.2345C22.8917 32.8602 22.8917 32.2546 22.5183 31.8804C22.1444 31.5073 21.5388 31.5073 21.1646 31.8804C20.7915 32.2546 20.7915 32.8602 21.1646 33.2345C21.5388 33.6076 22.1444 33.6076 22.5183 33.2345Z" fill="black"/>
<path d="M17.9873 10.5244C17.9873 16.3275 22.7085 21.0491 28.5117 21.0491C34.3148 21.0491 39.036 16.3275 39.036 10.5244C39.036 4.72124 34.3148 0 28.5117 0C22.7085 0 17.9873 4.72124 17.9873 10.5244ZM37.1227 10.5244C37.1227 15.2725 33.2598 19.1354 28.5117 19.1354C23.7635 19.1354 19.9006 15.2725 19.9006 10.5244C19.9006 5.77659 23.7635 1.91369 28.5117 1.91369C33.2598 1.91369 37.1227 5.77659 37.1227 10.5244Z" fill="black"/>
<path d="M11.0204 48.7172C11.3912 49.0911 11.995 49.0952 12.3707 48.7251L17.0093 44.1553C17.7973 43.3672 18.037 42.2005 17.6904 41.1862L18.6882 40.224C19.2254 39.7051 19.9327 39.4191 20.6804 39.4191H33.3996C35.6561 39.4191 37.7889 38.5525 39.4057 36.979C39.4723 36.9143 38.9007 37.5876 48.0829 26.6132C49.4448 25.0019 49.2411 22.5824 47.6284 21.219C46.0257 19.8683 43.6249 20.0623 42.2593 21.6459L36.6135 27.4487C35.9006 26.5713 34.8135 26.0244 33.6389 26.0244H22.9698C21.4516 25.3892 19.8408 25.0677 18.1787 25.0677C13.5715 25.0677 9.54855 27.1956 7.38962 31.1852C6.48006 31.0129 5.52079 31.288 4.83068 31.9782L0.279166 36.5431C-0.0924315 36.9158 -0.0931792 37.5188 0.277671 37.8927L11.0204 48.7172ZM18.1783 26.981C19.6437 26.981 21.0606 27.276 22.3904 27.8577C22.5115 27.9108 22.642 27.9381 22.7739 27.9381H33.6389C34.6763 27.9381 35.5525 28.7841 35.5525 29.8514C35.5525 30.9067 34.6942 31.7651 33.6389 31.7651H25.8327C25.3044 31.7651 24.876 32.1935 24.876 32.7217C24.876 33.2503 25.3044 33.6784 25.8327 33.6784H33.6389C35.7492 33.6784 37.4659 31.9617 37.4659 29.8514C37.4659 29.6831 37.4539 29.5164 37.4322 29.3512C42.8937 23.7372 43.6638 22.9484 43.6967 22.9091C44.3786 22.1043 45.5891 22.0022 46.3943 22.6811C47.2003 23.3626 47.3024 24.5724 46.6186 25.3817L38.0371 35.6407C36.784 36.8437 35.1387 37.5058 33.3996 37.5058H20.6804C19.434 37.5058 18.2542 37.9824 17.3592 38.8471L16.5461 39.6318L9.05059 32.1367C10.8024 28.8502 14.0896 26.981 18.1783 26.981ZM6.18473 33.3303C6.50025 33.0148 6.98475 32.958 7.36943 33.1958C7.53504 33.2967 7.05952 32.8638 15.6564 41.4487C16.0388 41.8311 16.0182 42.4405 15.6616 42.7971L11.7071 46.6929L2.30613 37.2201L6.18473 33.3303Z" fill="black"/>
<path d="M27.3635 4.78418V5.90533C26.2499 6.30011 25.4498 7.36368 25.4498 8.61119C25.4498 10.1937 26.7373 11.4815 28.3202 11.4815C28.8477 11.4815 29.2768 11.9107 29.2768 12.4382C29.2768 12.9657 28.8477 13.3949 28.3202 13.3949C27.9116 13.3949 27.4701 13.138 27.0779 12.6711C26.7377 12.2666 26.1343 12.2146 25.7298 12.5545C25.3253 12.8947 25.273 13.498 25.6132 13.9025C26.1246 14.5108 26.7261 14.9347 27.3635 15.1485V16.2652C27.3635 16.7938 27.7919 17.2219 28.3202 17.2219C28.8484 17.2219 29.2768 16.7938 29.2768 16.2652V15.1441C30.3905 14.7489 31.1905 13.6853 31.1905 12.4382C31.1905 10.8554 29.903 9.56785 28.3202 9.56785C27.7927 9.56785 27.3635 9.13868 27.3635 8.61119C27.3635 8.0837 27.7927 7.65416 28.3202 7.65416C28.6593 7.65416 29.017 7.82725 29.355 8.15436C29.7348 8.52184 30.3404 8.51175 30.7079 8.1323C31.0754 7.75248 31.0653 7.14685 30.6858 6.77937C30.2002 6.30945 29.7142 6.04365 29.2768 5.8986V4.78418C29.2768 4.25557 28.8484 3.82715 28.3202 3.82715C27.7919 3.82715 27.3635 4.25557 27.3635 4.78418Z" fill="black"/>
</svg>
