<svg width="37" height="44" viewBox="0 0 37 44" fill="none" xmlns="http://www.w3.org/2000/svg">
<path d="M26.6207 37.2857C23.4943 39 17.1241 42.5429 16.6552 43L7.5 36L4.5 33.5L29 5.5L36 6.5V20.1429L33.6552 29.8571L26.6207 37.2857Z" fill="#FFCB75"/>
<path d="M27.5 38C24.8333 39.5 19.4 42.6 19 43L11 39.5L6.5 35.5L35.5 11.5V23L33.5 31.5L27.5 38Z" fill="#FFAD27"/>
<path d="M36.015 6.19514C36.015 6.19514 28.875 4.93514 26.845 4.23514C23.976 3.44067 21.2933 2.08444 18.9525 0.245136C18.7969 0.0948997 18.5912 0.00761926 18.375 0.000136664C18.141 -0.00395631 17.9148 0.0840276 17.745 0.245136C15.4268 2.09941 12.7524 3.4575 9.8875 4.23514C7.875 4.93514 0.875 6.19514 0.735 6.19514C0.530933 6.22821 0.345166 6.33246 0.210628 6.48943C0.0760904 6.64639 0.00147215 6.84591 0 7.05264C0 21.2276 0.175 27.7726 4.515 34.4401C8.225 40.1451 17.64 43.6101 18.0425 43.7676C18.1408 43.7857 18.2417 43.7857 18.34 43.7676H18.6375C19.04 43.6101 28.525 40.1451 32.235 34.4401C36.575 27.7726 36.75 21.2276 36.75 7.05264C36.7485 6.84591 36.6739 6.64639 36.5394 6.48943C36.4048 6.33246 36.2191 6.22821 36.015 6.19514ZM30.765 33.4951C27.72 38.1676 19.95 41.3701 18.34 42.0001C16.73 41.3701 9.03 38.1676 5.985 33.4951C2.135 27.5801 1.7675 22.2951 1.75 7.78764C4.69565 7.35994 7.61644 6.77578 10.5 6.03764C13.3217 5.12162 15.9798 3.76301 18.375 2.01264C20.7969 3.71616 23.4723 5.02725 26.3025 5.89764C29.1861 6.63559 32.1069 7.21974 35.0525 7.64764C34.9825 22.2251 34.615 27.5101 30.765 33.4251V33.4951Z" fill="#222222"/>
<path d="M10.185 22.7676C10.0995 22.6915 9.99957 22.6333 9.89121 22.5965C9.78285 22.5596 9.6682 22.5449 9.55404 22.553C9.43987 22.5612 9.32849 22.5921 9.22647 22.644C9.12444 22.6959 9.03384 22.7676 8.95999 22.8551C8.81185 23.0349 8.7399 23.2655 8.75952 23.4977C8.77914 23.7299 8.88877 23.9452 9.06499 24.0976L17.815 31.5701C17.9687 31.7079 18.1686 31.7828 18.375 31.7801H18.4975C18.6208 31.7622 18.739 31.7187 18.8445 31.6524C18.95 31.5861 19.0404 31.4985 19.11 31.3951L29.295 16.4501C29.4273 16.2575 29.4776 16.0202 29.4349 15.7905C29.3923 15.5607 29.2601 15.3574 29.0675 15.2251C28.8749 15.0928 28.6376 15.0425 28.4079 15.0851C28.1781 15.1278 27.9748 15.26 27.8425 15.4526L18.2 29.6101L10.185 22.7676Z" fill="#222222"/>
</svg>
