<svg width="197" height="142" viewBox="0 0 197 142" fill="none" xmlns="http://www.w3.org/2000/svg">
<rect y="66" width="73" height="73" rx="36.5" fill="#6AC5DA"/>
<path d="M27.65 88.25L36.85 85H41.85V120H36.1V91.15L29.05 93.15L27.65 88.25Z" fill="#4BACC2"/>
<rect x="41" y="5" width="132" height="132" rx="66" fill="#4BACC2"/>
<path d="M130.2 98H84.1V89L108.5 64.1C114.433 58.1667 117.4 53.0333 117.4 48.7C117.4 45.3667 116.4 42.7333 114.4 40.8C112.4 38.8667 109.8 37.9 106.6 37.9C100.733 37.9 96.4 40.8 93.6 46.6L83.9 40.9C86.0333 36.3 89.1 32.8 93.1 30.4C97.1 27.9333 101.567 26.7 106.5 26.7C112.7 26.7 117.967 28.6333 122.3 32.5C126.7 36.4333 128.9 41.7 128.9 48.3C128.9 55.3667 124.933 62.9667 117 71.1L101.2 86.9H130.2V98Z" fill="#5CBAD0"/>
<path d="M191.754 90.7399C191.019 90.7399 190.32 90.8903 189.685 91.1606C188.913 89.2456 187.02 87.888 184.81 87.888C183.989 87.888 183.212 88.0755 182.52 88.409C181.644 86.7507 179.888 85.6152 177.867 85.6152C177.273 85.6152 176.703 85.7146 176.17 85.8954V80.186C176.17 77.3266 173.817 75 170.924 75C168.031 75 165.677 77.3266 165.677 80.186V100.731L161.899 96.4869C161.872 96.4579 161.845 96.4294 161.817 96.4021C160.825 95.4274 159.505 94.887 158.099 94.8803C158.09 94.8803 158.082 94.8803 158.073 94.8803C156.67 94.8803 155.358 95.4118 154.374 96.3784C152.639 98.082 152.543 100.611 154.111 103.317C156.141 106.818 158.348 110.12 160.295 113.033C161.717 115.162 163.062 117.173 164.044 118.835C164.896 120.278 167.158 124.957 167.181 125.004C167.474 125.612 168.099 126 168.784 126H191.221C191.992 126 192.674 125.512 192.911 124.792C193.329 123.515 197 112.188 197 107.814V95.9264C197 93.0663 194.646 90.7399 191.754 90.7399ZM190.057 95.9262C190.057 94.9873 190.818 94.2235 191.754 94.2235C192.69 94.2235 193.451 94.9873 193.451 95.9262V107.814C193.451 110.721 191.175 118.535 189.919 122.516H169.903C169.167 121.013 167.788 118.229 167.114 117.088C166.082 115.342 164.712 113.292 163.262 111.121C161.343 108.252 159.17 104.999 157.195 101.594C156.68 100.705 156.208 99.5052 156.884 98.8413C157.199 98.531 157.624 98.3689 158.082 98.3641C158.529 98.3663 158.95 98.5319 159.273 98.8313L166.116 106.517C166.602 107.063 167.384 107.256 168.076 107.001C168.768 106.746 169.226 106.096 169.226 105.37V80.186C169.226 79.2472 169.988 78.4838 170.924 78.4838C171.86 78.4838 172.622 79.2472 172.622 80.186V96.4495C172.622 97.4114 173.416 98.1914 174.396 98.1914C175.376 98.1914 176.17 97.4114 176.17 96.4495V90.8007C176.17 89.8624 176.932 89.0991 177.867 89.0991C178.803 89.0991 179.565 89.8624 179.565 90.8007V98.7214C179.565 99.6839 180.359 100.464 181.339 100.464C182.319 100.464 183.113 99.6841 183.113 98.7214V93.074C183.113 92.1353 183.875 91.3716 184.81 91.3716C185.747 91.3716 186.508 92.1353 186.508 93.074V100.995C186.508 101.957 187.303 102.737 188.283 102.737C189.263 102.737 190.057 101.957 190.057 100.995V95.9262H190.057Z" fill="#7BC7D8"/>
</svg>
