<svg width="7" height="12" viewBox="0 0 7 12" fill="none" xmlns="http://www.w3.org/2000/svg">
<path d="M5.83333 0H1.16667C0.857247 0 0.560501 0.126428 0.341709 0.351472C0.122916 0.576515 0 0.88174 0 1.2V10.8C0 11.1183 0.122916 11.4235 0.341709 11.6485C0.560501 11.8736 0.857247 12 1.16667 12H5.83333C6.14275 12 6.4395 11.8736 6.65829 11.6485C6.87708 11.4235 7 11.1183 7 10.8V1.2C7 0.88174 6.87708 0.576515 6.65829 0.351472C6.4395 0.126428 6.14275 0 5.83333 0ZM4.08333 11.4H2.91667V10.8H4.08333V11.4ZM5.83333 10.2H1.16667V1.8H5.83333V10.2Z" fill="#444444"/>
</svg>
