<svg width="17" height="15" viewBox="0 0 17 15" fill="none" xmlns="http://www.w3.org/2000/svg">
<path d="M14.8485 0.00153242C14.6505 0.0165035 14.4561 0.0647791 14.2729 0.144476H14.2705C14.0947 0.216909 13.2588 0.58228 11.988 1.13611L7.43401 3.12898C4.1663 4.55842 0.954113 5.96606 0.954113 5.96606L0.992361 5.95068C0.992361 5.95068 0.770895 6.02631 0.539558 6.19105C0.39664 6.28555 0.273658 6.40919 0.178056 6.5545C0.0645463 6.72757 -0.0267546 6.9923 0.0071748 7.26601C0.0626956 7.72882 0.351404 8.00637 0.558682 8.15957C0.768427 8.31469 0.968302 8.38713 0.968302 8.38713H0.973237L3.98555 9.44157C4.12065 9.8922 4.90349 12.5665 5.09165 13.1825C5.20269 13.5504 5.31065 13.7805 5.44575 13.9562C5.51114 14.0459 5.58763 14.1209 5.67955 14.1811C5.72734 14.21 5.77829 14.2328 5.83131 14.2491L5.80046 14.2414C5.80972 14.244 5.81712 14.2517 5.82391 14.2542C5.84858 14.2613 5.86524 14.2638 5.8967 14.269C6.37356 14.419 6.75666 14.1113 6.75666 14.1113L6.77825 14.0933L8.55677 12.4107L11.5376 14.7869L11.6055 14.817C12.2267 15.1003 12.8559 14.9427 13.1884 14.6645C13.5234 14.3843 13.6536 14.026 13.6536 14.026L13.6752 13.9683L15.9787 1.7066C16.0441 1.40405 16.0607 1.12072 15.9885 0.845733C15.9141 0.567426 15.7423 0.328064 15.5067 0.174603C15.309 0.0496812 15.0797 -0.0106155 14.8485 0.00153242ZM14.7862 1.31559C14.7837 1.35597 14.7911 1.35148 14.7739 1.42904V1.4361L12.492 13.5703C12.4821 13.5876 12.4654 13.6254 12.4198 13.6632C12.3717 13.703 12.3334 13.728 12.1329 13.6453L8.48706 10.7409L6.28473 12.8267L6.7474 9.75631L12.7042 3.98728C12.9497 3.75011 12.8676 3.70012 12.8676 3.70012C12.8849 3.4091 12.4969 3.61486 12.4969 3.61486L4.98554 8.44994L4.98307 8.43712L1.38286 7.17755V7.17499L1.3736 7.17307C1.37992 7.17089 1.3861 7.16832 1.39211 7.16537L1.41185 7.15512L1.43098 7.14807C1.43098 7.14807 4.64563 5.74043 7.91334 4.31099C9.54935 3.59499 11.1977 2.87386 12.4654 2.31747C13.7332 1.76429 14.6702 1.35853 14.7233 1.33674C14.7739 1.31623 14.7498 1.31623 14.7862 1.31623V1.31559Z" fill="#666666"/>
</svg>
