<svg width="15" height="15" viewBox="0 0 15 15" fill="none" xmlns="http://www.w3.org/2000/svg">
<path d="M7.30727 0C5.32426 0 5.0749 0.00913409 4.29576 0.0438436C3.51663 0.08038 2.98593 0.202777 2.52101 0.383632C2.03333 0.567062 1.59161 0.854792 1.22671 1.22671C0.855021 1.59179 0.567325 2.03347 0.383632 2.52101C0.202777 2.98502 0.0794666 3.51663 0.0438436 4.29302C0.00913409 5.07399 0 5.32244 0 7.30819C0 9.29211 0.00913409 9.54056 0.0438436 10.3197C0.08038 11.0979 0.202777 11.6286 0.383632 12.0935C0.570881 12.574 0.820242 12.9814 1.22671 13.3878C1.63226 13.7943 2.03964 14.0446 2.5201 14.2309C2.98593 14.4118 3.51571 14.5351 4.29394 14.5707C5.07399 14.6054 5.32244 14.6145 7.30727 14.6145C9.29211 14.6145 9.53965 14.6054 10.3197 14.5707C11.097 14.5342 11.6295 14.4118 12.0945 14.2309C12.5818 14.0474 13.0232 13.7597 13.3878 13.3878C13.7943 12.9814 14.0437 12.574 14.2309 12.0935C14.4109 11.6286 14.5342 11.0979 14.5707 10.3197C14.6054 9.54056 14.6145 9.29211 14.6145 7.30727C14.6145 5.32244 14.6054 5.07399 14.5707 4.29394C14.5342 3.51663 14.4109 2.98502 14.2309 2.52101C14.0472 2.03345 13.7595 1.59178 13.3878 1.22671C13.0231 0.854655 12.5813 0.566903 12.0935 0.383632C11.6277 0.202777 11.0961 0.0794666 10.3188 0.0438436C9.53873 0.00913409 9.2912 0 7.30545 0H7.30819H7.30727ZM6.65236 1.31714H7.30819C9.25923 1.31714 9.49032 1.32353 10.2603 1.35915C10.9728 1.39112 11.3601 1.51078 11.6177 1.61034C11.9584 1.74278 12.2022 1.90172 12.458 2.15747C12.7137 2.41323 12.8718 2.65619 13.0042 2.99781C13.1047 3.25448 13.2234 3.64176 13.2554 4.35422C13.291 5.12423 13.2983 5.35532 13.2983 7.30545C13.2983 9.25558 13.291 9.48758 13.2554 10.2576C13.2234 10.97 13.1038 11.3564 13.0042 11.614C12.8871 11.9313 12.7001 12.2182 12.4571 12.4534C12.2013 12.7092 11.9584 12.8672 11.6167 12.9996C11.361 13.1001 10.9737 13.2189 10.2603 13.2517C9.49032 13.2865 9.25923 13.2947 7.30819 13.2947C5.35715 13.2947 5.12514 13.2865 4.35513 13.2517C3.64268 13.2189 3.2563 13.1001 2.99872 12.9996C2.68131 12.8827 2.39416 12.696 2.15839 12.4534C1.91519 12.2178 1.72792 11.9306 1.61034 11.6131C1.51078 11.3564 1.39112 10.9691 1.35915 10.2567C1.32444 9.48667 1.31714 9.25558 1.31714 7.30362C1.31714 5.35258 1.32444 5.1224 1.35915 4.35239C1.39204 3.63994 1.51078 3.25265 1.61125 2.99507C1.7437 2.65437 1.90263 2.41049 2.15839 2.15473C2.41414 1.89898 2.65711 1.74096 2.99872 1.60851C3.2563 1.50804 3.64268 1.3893 4.35513 1.35641C5.02923 1.32536 5.29047 1.31622 6.65236 1.31531V1.31714ZM11.2084 2.53014C11.0933 2.53014 10.9793 2.55282 10.8729 2.59689C10.7665 2.64096 10.6698 2.70555 10.5884 2.78697C10.507 2.8684 10.4424 2.96506 10.3983 3.07145C10.3543 3.17784 10.3316 3.29186 10.3316 3.40702C10.3316 3.52217 10.3543 3.63619 10.3983 3.74258C10.4424 3.84897 10.507 3.94563 10.5884 4.02706C10.6698 4.10848 10.7665 4.17307 10.8729 4.21714C10.9793 4.26121 11.0933 4.28389 11.2084 4.28389C11.441 4.28389 11.664 4.1915 11.8285 4.02706C11.9929 3.86261 12.0853 3.63958 12.0853 3.40702C12.0853 3.17446 11.9929 2.95142 11.8285 2.78697C11.664 2.62253 11.441 2.53014 11.2084 2.53014ZM7.30819 3.55499C6.81044 3.54722 6.31613 3.63855 5.85402 3.82366C5.39191 4.00877 4.97124 4.28395 4.61651 4.6332C4.26177 4.98244 3.98006 5.39877 3.78776 5.85793C3.59547 6.3171 3.49644 6.80993 3.49644 7.30773C3.49644 7.80553 3.59547 8.29836 3.78776 8.75753C3.98006 9.21669 4.26177 9.63302 4.61651 9.98226C4.97124 10.3315 5.39191 10.6067 5.85402 10.7918C6.31613 10.9769 6.81044 11.0682 7.30819 11.0605C8.29334 11.0451 9.23293 10.643 9.92417 9.94086C10.6154 9.23876 11.0028 8.293 11.0028 7.30773C11.0028 6.32246 10.6154 5.3767 9.92417 4.6746C9.23293 3.9725 8.29334 3.57036 7.30819 3.55499ZM7.30819 4.87121C7.95427 4.87121 8.57389 5.12787 9.03074 5.58472C9.48759 6.04157 9.74425 6.66119 9.74425 7.30727C9.74425 7.95336 9.48759 8.57298 9.03074 9.02983C8.57389 9.48668 7.95427 9.74334 7.30819 9.74334C6.6621 9.74334 6.04248 9.48668 5.58563 9.02983C5.12878 8.57298 4.87212 7.95336 4.87212 7.30727C4.87212 6.66119 5.12878 6.04157 5.58563 5.58472C6.04248 5.12787 6.6621 4.87121 7.30819 4.87121Z" fill="#666666"/>
</svg>
