<svg width="14" height="15" viewBox="0 0 14 15" fill="none" xmlns="http://www.w3.org/2000/svg">
<path d="M6.58278 0C5.40616 0.0174614 2.87828 0.214526 1.46596 1.53847C0.416951 2.6111 0.0469276 4.17827 0.00845985 6.12209C-0.0300079 8.0653 -0.080077 11.7091 3.35882 12.6969H3.36065L3.35821 14.2036C3.35821 14.2036 3.33562 14.8129 3.73067 14.9376C4.20511 15.0885 4.48415 14.6258 4.93966 14.1257C5.18817 13.8513 5.53316 13.4496 5.79267 13.1403C8.14347 13.3436 9.95207 12.8809 10.1585 12.8129C10.6323 12.6558 13.3189 12.3041 13.7561 8.66148C14.2079 4.90728 13.5363 2.53128 12.3273 1.46115C11.9634 1.11815 10.4918 0.0268157 7.21353 0.0124724C7.21353 0.0124724 6.97234 -0.00311811 6.58034 0.00187086L6.58278 0ZM6.6182 1.05579C6.95097 1.0533 7.15552 1.06639 7.15552 1.06639C9.92887 1.07887 11.2569 1.93198 11.5653 2.2176C12.588 3.1125 13.1101 5.25339 12.7291 8.38958V8.39083C12.3603 11.4329 10.1804 11.6237 9.77866 11.7553C9.60769 11.8114 8.01891 12.2149 6.02164 12.082C6.02164 12.082 4.53422 13.9155 4.06956 14.3919C3.99628 14.4668 3.9108 14.4961 3.85462 14.4817C3.77525 14.4612 3.75327 14.3645 3.75388 14.2236L3.76609 11.7179C0.858414 10.8947 1.02755 7.79402 1.06113 6.17074C1.09411 4.54683 1.39269 3.21602 2.27989 2.32112C3.47666 1.21544 5.62231 1.06265 6.62125 1.05517L6.6182 1.05579ZM6.85022 2.67846C6.80288 2.68089 6.75825 2.70174 6.72548 2.73671C6.6927 2.77168 6.67427 2.81814 6.67396 2.86655C6.67364 2.91496 6.69148 2.96165 6.7238 2.99707C6.75612 3.03248 6.80048 3.05392 6.84778 3.05699C7.83939 3.06323 8.64661 3.39188 9.30728 4.0498C9.96245 4.70211 10.2964 5.5889 10.3044 6.75258C10.3056 6.85672 10.3899 6.93966 10.4918 6.93966C10.5406 6.93901 10.5872 6.91874 10.6215 6.88326C10.6558 6.84778 10.675 6.79993 10.675 6.75008C10.6665 5.51282 10.2977 4.50754 9.56617 3.77915C8.83956 3.05575 7.92244 2.68594 6.85083 2.67846H6.85022ZM4.43225 3.11187C4.30244 3.09351 4.17031 3.11915 4.05612 3.18484L4.05002 3.18608C3.78746 3.34012 3.55177 3.53656 3.35027 3.7673C3.34905 3.76979 3.34661 3.76979 3.34538 3.77229C3.18235 3.97372 3.08893 4.17016 3.06451 4.36348C3.05973 4.39231 3.05829 4.42162 3.06023 4.45079C3.06023 4.5356 3.07367 4.61917 3.09992 4.70024L3.10786 4.70647C3.19029 5.00581 3.39668 5.50221 3.84363 6.33038C4.10009 6.80932 4.395 7.26582 4.72656 7.69362C4.89142 7.90815 5.0685 8.11332 5.25778 8.30726L5.33838 8.38958C5.52767 8.58166 5.72916 8.76375 5.93921 8.93213C6.35843 9.27083 6.80494 9.57269 7.27398 9.83451C8.08486 10.2916 8.57211 10.5018 8.86398 10.5866L8.87009 10.5953C8.97631 10.6308 9.08877 10.6425 9.19981 10.6296C9.3891 10.6072 9.58266 10.5111 9.77866 10.3428C9.7811 10.3428 9.78049 10.3415 9.78354 10.3396C10.0095 10.1339 10.2006 9.89064 10.3514 9.62373L10.3532 9.61749C10.4906 9.34809 10.4448 9.0924 10.2433 8.91904C10.2409 8.91904 9.81713 8.55734 9.61013 8.40143C9.39032 8.24241 9.16439 8.09461 8.93054 7.95866C8.61913 7.78093 8.3004 7.89256 8.16851 8.06717L7.89557 8.41889C7.75513 8.59538 7.49441 8.5723 7.49441 8.5723C5.58934 8.0759 5.07949 6.10588 5.07949 6.10588C5.07949 6.10588 5.05689 5.84022 5.23091 5.69678L5.57468 5.4174C5.74382 5.28332 5.85312 4.95779 5.67848 4.63912C5.54586 4.39983 5.40116 4.16774 5.24496 3.94378C5.08098 3.72463 4.912 3.50942 4.73816 3.29833C4.66159 3.2004 4.55255 3.13451 4.43164 3.11312L4.43225 3.11187ZM7.17384 3.66066C7.12477 3.65917 7.07714 3.67765 7.04141 3.71203C7.00568 3.74642 6.98479 3.79389 6.98333 3.844C6.98188 3.89412 6.99997 3.94277 7.03364 3.97926C7.0673 4.01575 7.11378 4.03709 7.16285 4.03857C7.87115 4.09158 8.39443 4.32918 8.77789 4.75574C9.16256 5.18479 9.34574 5.70614 9.33109 6.35845C9.33375 6.40641 9.35403 6.45157 9.38787 6.48493C9.42171 6.51829 9.46663 6.53739 9.51365 6.53842C9.56067 6.53944 9.60634 6.52231 9.64155 6.49046C9.67675 6.4586 9.69889 6.41435 9.70355 6.36655C9.71882 5.6338 9.49961 4.99895 9.05204 4.49943C8.6002 3.9943 7.96701 3.71803 7.18972 3.66004H7.17506L7.17384 3.66066ZM7.45655 4.67716C7.40953 4.67787 7.36452 4.69671 7.33054 4.72991C7.29656 4.7631 7.27614 4.8082 7.27337 4.85614C7.26848 4.96029 7.34664 5.04946 7.44922 5.0557C7.76857 5.07316 7.9835 5.16483 8.12882 5.31887C8.27536 5.47166 8.36573 5.70551 8.38283 6.04476C8.38912 6.09178 8.41244 6.13468 8.44819 6.16499C8.48395 6.1953 8.52953 6.21081 8.57594 6.20846C8.62234 6.20611 8.6662 6.18607 8.69884 6.1523C8.73148 6.11853 8.75054 6.07348 8.75224 6.02606C8.73392 5.62444 8.62096 5.29143 8.39809 5.05508C8.174 4.81935 7.85283 4.69712 7.46998 4.67654H7.45899L7.45655 4.67716Z" fill="#666666"/>
</svg>
