<svg width="20" height="20" viewBox="0 0 20 20" fill="none" xmlns="http://www.w3.org/2000/svg">
<path d="M16.2408 16.2654L16.2223 16.0132C16.1767 15.4233 15.7203 14.705 15.2072 14.4165L13.3093 13.345C12.7945 13.055 11.9549 13.0582 11.4483 13.3605L10.5243 13.912C8.02603 12.5106 6.45438 9.87721 6.40765 7.01388L7.33172 6.46235C7.83829 6.16001 8.23931 5.42354 8.22848 4.83277L8.18754 2.65294C8.17645 2.06318 7.75976 1.32023 7.26281 1.00234L7.04986 0.865351C6.55187 0.547195 5.73033 0.534385 5.2238 0.836704L3.84133 1.66268C3.59466 1.80902 3.32704 2.33814 3.32652 2.34018C2.40331 5.83423 2.92492 9.55684 4.77762 12.661C6.62578 15.7576 9.64251 17.9786 13.1436 18.8311C13.1618 18.8357 13.7703 18.8575 14.017 18.7111L15.3992 17.8861C15.9058 17.5839 16.2844 16.8547 16.2408 16.2654Z" fill="#CFCFCF"/>
</svg>
